<svg xmlns="http://www.w3.org/2000/svg" viewBox="0 0 1297.36 1631.42"><defs><style>.cls-1,.cls-2{fill:#fff;}.cls-2{stroke:#000;}.cls-2,.cls-3{stroke-miterlimit:10;}.cls-3{fill:#fc4e05;stroke:#fc4e05;}</style></defs><g id="Layer_2" data-name="Layer 2"><polygon class="cls-1" points="908.51 1.9 714.71 633.84 816.65 702.77 905.33 625.06 1007.22 691.45 1051.36 601.32 908.51 1.9"/><polyline class="cls-2" points="714.71 633.84 908.51 1.9 1051.36 601.32"/></g><g id="Layer_1" data-name="Layer 1"><polygon class="cls-1" points="562.7 609.75 483.02 388.18 374.47 667.9 476 729.36 562.7 609.75"/><polyline class="cls-2" points="374.47 667.9 483.02 388.18 562.7 609.75"/><polygon class="cls-3" points="1051.36 601.32 1296.73 1630.92 0.73 1630.92 357.37 711.96 374.47 667.9 476 729.36 562.7 609.75 648.73 848.96 714.71 633.84 816.65 702.77 905.33 625.06 1007.22 691.45 1051.36 601.32"/></g></svg>